# xmcd
#
# Track frame offsets:
#	150
#	30290
#	44172
#	62331
#	80252
#	96865
#	117150
#	137420
#	171581
#	188731
#	203085
#	224028
#	239146
#	252882
#
# Disc length: 3899 seconds
#
# Revision: 2
# Processed by: cddbd v1.5.2PL0 Copyright (c) Steve Scherf et al.
# Submitted via: audiograbber 1.83.01
#
DISCID=c80f390e
DTITLE=Various Artist - The Best of Pickin' On Lynyrd Skynyrd
DYEAR=2008
DGENRE=Bluegrass
TTITLE0=Larry Cordle and Lonesome Standard Time - Sweet Home Alabama
TTITLE1=The Sidekicks - Don't Ask Me No Questions
TTITLE2=Larry Cordle and Lonesome Standard Time - Call Me The Breeze
TTITLE3=The Sidekicks - Things Goin' On
TTITLE4=Larry Cordle and Lonesome Standard Time - I Know A Little
TTITLE5=Larry Cordle and Lonesome Standard Time - Gimme Three Steps
TTITLE6=The Sidekicks - That Smell
TTITLE7=Larry Cordle and Lonesome Standard Time - Tuesday's Gone
TTITLE8=The Sidekicks - You Got That Right
TTITLE9=The Sidekicks - The Needle And The Spoon
TTITLE10=Larry Cordle and Lonesome Standard Time - Saturday Night Special
TTITLE11=The Sidekicks - Swamp Music
TTITLE12=The Sidekicks - What's Your Name
TTITLE13=Larry Cordle and Lonesome Standard Time - Freebird
EXTD=
EXTT0=
EXTT1=
EXTT2=
EXTT3=
EXTT4=
EXTT5=
EXTT6=
EXTT7=
EXTT8=
EXTT9=
EXTT10=
EXTT11=
EXTT12=
EXTT13=
PLAYORDER=
